<svg aria-hidden="true" style="position:absolute;width:0;height:0;overflow:hidden" xmlns="http://www.w3.org/2000/svg">
  <defs>
    <symbol id="attention-icon" viewBox="0 0 32 32">
      <path d="M14.667 20h2.667v2.667h-2.667V20zm0-10.667h2.667v8h-2.667v-8zm1.32-6.666C8.627 2.667 2.667 8.64 2.667 16s5.96 13.333 13.32 13.333c7.373 0 13.347-5.973 13.347-13.333S23.361 2.667 15.987 2.667zm.013 24c-5.893 0-10.667-4.773-10.667-10.667S10.106 5.333 16 5.333c5.893 0 10.667 4.773 10.667 10.667S21.894 26.667 16 26.667z"/>
    </symbol>
    <symbol id="checkmark-icon" viewBox="0 0 32 32">
      <path fill="none" stroke="#fff" style="stroke: var(--color1, #fff)" stroke-linejoin="round" stroke-linecap="round" stroke-miterlimit="4" stroke-width="3.6923" d="M26.666 8l-14.666 14.666-6.666-6.666"></path>
    </symbol>
    <symbol id="facebook-icon" viewBox="0 0 32 32">
      <path d="M29 16c0-2.571-.762-5.085-2.191-7.222S23.35 4.974 20.975 3.99A13.004 13.004 0 0 0 6.808 6.808a13.002 13.002 0 0 0 1.97 20.001A13.003 13.003 0 0 0 16 29a13.012 13.012 0 0 0 13-13zM17 26.95V19h3a.997.997 0 0 0 1-1 .997.997 0 0 0-1-1h-3v-3a2 2 0 0 1 2-2h2a.997.997 0 0 0 1-1 .997.997 0 0 0-1-1h-2a4.014 4.014 0 0 0-4 4v3h-3a.997.997 0 0 0-1 1 .997.997 0 0 0 1 1h3v7.95a11.003 11.003 0 0 1-9.989-11.455 10.996 10.996 0 0 1 18.587-7.453c2.047 1.956 3.261 4.625 3.389 7.453s-.838 5.596-2.698 7.73-4.472 3.468-7.291 3.725z"/>
    </symbol>
    <symbol id="instagram-icon" viewBox="0 0 32 32">
      <path d="M16 10a5.998 5.998 0 0 0-4.242 10.243 5.996 5.996 0 0 0 6.539 1.301 5.999 5.999 0 0 0-2.296-11.543zm0 10a4.004 4.004 0 0 1-3.695-2.469A4 4 0 1 1 20 16a4.014 4.014 0 0 1-4 4zm5.5-16.5h-11a7 7 0 0 0-7 7v11a7 7 0 0 0 7 7h11a6.997 6.997 0 0 0 7-7v-11a6.997 6.997 0 0 0-7-7zm5 18c0 .657-.129 1.307-.381 1.913s-.62 1.158-1.084 1.622A4.993 4.993 0 0 1 21.5 26.5h-11c-.657 0-1.307-.129-1.913-.381s-1.158-.62-1.622-1.084A4.993 4.993 0 0 1 5.5 21.5v-11a4.997 4.997 0 0 1 5-5h11c.657 0 1.307.129 1.913.381s1.158.62 1.622 1.084A5.004 5.004 0 0 1 26.5 10.5v11zM24 9.5a1.495 1.495 0 0 1-.926 1.385 1.496 1.496 0 0 1-1.635-.326 1.5 1.5 0 1 1 2.559-1.061z"/>
    </symbol>
    <symbol id="logo-icon" viewBox="0 0 241 32">
      <path d="M0 31.965V0h5.991l14.798 10.372h.224L35.811 0h5.99v31.965h-7.153V8.941L24.5 15.736v16.228h-7.153V15.736L7.154 8.941v23.024H.001zM48.515 31.965V0h7.153v31.965h-7.153zM62.365 31.965V0h7.242l22.621 22.979V0h7.153v31.965h-7.242L69.518 8.941v23.024h-7.153zM106.077 31.965V0h7.153v31.965h-7.153zM119.927 31.965V0h5.991l14.798 10.372h.223L155.737 0h5.991v31.965h-7.153V8.941l-10.148 6.795v16.228h-7.153V15.736l-10.193-6.795v23.024h-7.153zM165.759 31.965 180.154 0h11.042l14.396 31.965h-7.78l-3.04-6.751h-18.195l-3.04 6.751h-7.779zm13.412-12.563h13.01l-6.214-13.814h-.581l-6.214 13.814zM209.623 31.965V0h7.153v26.153h23.381v5.812h-30.534z"/>
    </symbol>
    <symbol id="youtube-icon" viewBox="0 0 32 32">
      <path d="m20.55 15.162-6-4c-.152-.096-.326-.152-.506-.161s-.359.029-.519.111A1.004 1.004 0 0 0 13 12v8c-.001.182.047.36.139.517s.226.285.386.371c.148.074.31.112.475.112a1.05 1.05 0 0 0 .55-.162l6-4a1.003 1.003 0 0 0 .454-.837 1.002 1.002 0 0 0-.454-.837zM15 18.138v-4.275l3.2 2.138-3.2 2.138zm14.288-9.413a2.937 2.937 0 0 0-1.813-2.038C23.2 5.037 16.375 5.049 16 5.049S8.8 5.036 4.525 6.687a2.944 2.944 0 0 0-1.812 2.038c-.325 1.237-.712 3.512-.712 7.275s.388 6.038.712 7.275a2.946 2.946 0 0 0 1.812 2.038c4.1 1.588 10.525 1.638 11.387 1.638h.175c.862 0 7.288-.05 11.388-1.638a2.944 2.944 0 0 0 1.813-2.038C29.613 22.037 30 19.762 30 16s-.388-6.038-.712-7.275zm-1.938 14.05a.984.984 0 0 1-.588.675C22.8 24.975 16.075 24.95 16 24.95h-.012c-.063 0-6.788.025-10.75-1.5a.972.972 0 0 1-.588-.675C4.35 21.637 4 19.55 4 16s.35-5.638.65-6.775a.978.978 0 0 1 .588-.675c3.813-1.463 10.213-1.5 10.738-1.5h.025c.075 0 6.8-.025 10.762 1.5a.972.972 0 0 1 .588.675c.3 1.137.65 3.225.65 6.775s-.35 5.638-.65 6.775z"/>
    </symbol>
    <symbol id="scroll-up-icon" viewBox="0 0 32 32">
      <path d="M.357 26.95v-6.257L16 5.05l15.643 15.643v6.257L16 11.307z"/>
    </symbol>
  </defs>
</svg>
